<svg version="1.1" id="Layer_1" xmlns="http://www.w3.org/2000/svg" xmlns:xlink="http://www.w3.org/1999/xlink" x="0px" y="0px"
	 width="100%" viewBox="0 0 3200 2400" enable-background="new 0 0 3200 2400" xml:space="preserve">
<path fill="#FFFFFF" opacity="1.000000" stroke="none" 
	d="
M3202.000000,360.000000 
	C3202.000000,419.389404 3202.000000,478.778809 3201.232422,538.818848 
	C3191.660156,538.231873 3182.889648,536.320862 3174.045166,535.871460 
	C3132.501221,533.760620 3097.852295,549.226501 3069.316650,578.760315 
	C3042.333008,606.688293 3031.599121,640.101318 3037.641357,678.631409 
	C3042.949219,712.476624 3059.112793,740.612915 3083.298096,764.409241 
	C3113.213379,793.843384 3148.826660,805.232788 3190.282715,797.888428 
	C3194.177734,797.198425 3198.093750,796.626709 3202.000000,796.000000 
	C3202.000000,1331.280518 3202.000000,1866.561035 3202.000000,2401.920898 
	C2135.491455,2401.920898 1068.982910,2401.920898 2.237189,2401.920898 
	C2.237189,1602.237183 2.237189,802.474182 2.237189,2.000000 
	C409.389130,2.000000 816.778687,2.000000 1224.690063,2.537273 
	C1212.018188,19.335932 1198.714233,35.509502 1185.656250,51.879135 
	C1165.760498,76.820572 1144.959229,101.129654 1126.441650,127.063347 
	C1073.871094,200.687988 1047.402588,282.126434 1055.593994,373.488831 
	C1058.159546,402.104218 1063.416626,430.117096 1072.765869,457.188354 
	C1079.801758,477.561249 1088.434448,497.382782 1095.874512,518.078979 
	C1073.385010,525.279907 1051.382446,531.869873 1029.365723,538.411865 
	C1022.773193,540.370789 1016.140991,542.195923 1009.498840,543.206116 
	C1009.818787,539.687927 1010.036438,537.021057 1010.534546,534.407593 
	C1018.884705,490.592926 1020.367615,446.441681 1015.493652,402.216034 
	C1009.715088,349.782166 995.358704,299.757294 969.618469,253.430664 
	C944.978577,209.084427 913.015747,170.853058 870.069031,143.386780 
	C786.723450,90.083687 696.489990,55.258339 597.343262,45.573406 
	C548.535095,40.805679 500.277557,43.126827 452.855469,56.314892 
	C397.348358,71.751396 349.735535,100.281723 310.063782,142.240479 
	C289.553864,163.932785 272.491669,187.988708 257.435211,213.645355 
	C221.301849,275.217712 193.671799,340.060272 181.013458,410.721497 
	C173.451065,452.936310 171.892395,495.246704 177.534119,537.895081 
	C184.781784,592.683594 203.786270,642.974182 233.895798,689.100952 
	C268.452301,742.040344 313.201843,784.960693 365.681793,819.742004 
	C419.746033,855.573486 478.854767,878.579651 543.527039,886.457581 
	C551.728455,887.456665 559.907043,888.643250 568.014954,890.470276 
	C558.960876,906.688904 550.145691,922.274231 540.979614,937.650452 
	C525.803345,963.108826 512.794739,989.684875 502.167480,1017.265198 
	C492.391998,1042.634888 483.904572,1068.537231 475.797089,1094.500854 
	C470.376617,1111.859375 465.600616,1129.551636 462.355988,1147.424927 
	C457.933990,1171.784058 455.111267,1196.440186 451.871307,1221.004395 
	C450.273254,1233.120239 448.226440,1245.313477 448.202911,1257.475220 
	C448.127167,1296.644653 446.285828,1335.882690 451.880859,1374.908936 
	C455.069061,1397.147339 456.565979,1419.661865 460.518158,1441.748901 
	C466.698914,1476.290771 474.756470,1510.475586 485.072296,1544.060547 
	C500.414062,1594.008301 519.745178,1642.424805 542.817200,1689.263916 
	C553.965820,1711.896973 566.638123,1733.792480 578.968079,1755.827515 
	C594.705017,1783.951172 612.420166,1810.854614 631.757507,1836.599487 
	C648.861389,1859.370972 666.598877,1881.690918 684.693604,1903.686035 
	C698.376099,1920.317749 712.526794,1936.637451 727.427551,1952.176758 
	C749.968872,1975.684204 773.313171,1998.382324 798.223083,2019.484741 
	C818.216614,2036.421875 838.268066,2053.201904 860.079956,2068.912598 
	C860.280640,2074.143311 859.764465,2078.557373 860.442932,2082.779541 
	C862.329895,2094.522217 862.963196,2106.879639 867.272217,2117.731445 
	C875.697388,2138.948975 889.445801,2156.886963 907.157593,2171.653564 
	C928.286621,2189.269043 952.448792,2200.417725 979.590759,2203.729736 
	C998.774231,2206.070312 1017.872131,2203.320801 1036.347168,2196.976318 
	C1050.656494,2192.062500 1063.163696,2183.944580 1076.512085,2176.008301 
	C1103.598511,2182.735840 1129.822144,2189.767822 1156.275391,2195.791504 
	C1171.708374,2199.305908 1187.456421,2201.595947 1203.159668,2203.718018 
	C1217.235596,2205.620605 1231.429077,2207.473389 1245.597656,2207.706787 
	C1279.892456,2208.272217 1314.218018,2208.477783 1348.500488,2207.611084 
	C1364.604004,2207.204346 1380.662964,2204.183350 1396.693970,2201.994141 
	C1412.722046,2199.805420 1428.831177,2197.858398 1444.651489,2194.582031 
	C1468.943237,2189.551514 1493.237671,2184.263428 1517.123901,2177.620850 
	C1541.086792,2170.957764 1564.918823,2163.466797 1588.151611,2154.615234 
	C1627.839966,2139.494385 1667.087646,2123.152344 1704.034302,2101.938477 
	C1730.796875,2086.571777 1757.807495,2071.558838 1783.855713,2055.044678 
	C1823.084351,2030.174683 1860.312744,2002.438232 1895.264893,1971.778687 
	C1914.459717,1954.941162 1933.555176,1937.975342 1952.251099,1920.589355 
	C1964.925659,1908.802734 1976.750000,1896.105347 1989.141113,1884.006348 
	C1991.638062,1881.568237 1994.974731,1879.990234 1998.524658,1878.309814 
	C2023.228271,1903.241577 2049.577393,1925.147583 2078.853271,1943.386475 
	C2136.966553,1979.591064 2199.820068,2001.401855 2268.573730,2004.285278 
	C2287.166016,2005.064941 2305.839844,2004.235229 2324.465576,2003.737061 
	C2332.751465,2003.515259 2341.183594,2003.080322 2349.243652,2001.332886 
	C2363.114746,1998.325562 2376.723633,1994.125122 2390.489990,1990.609985 
	C2396.254150,1989.138062 2402.364502,1988.774658 2407.925781,1986.802856 
	C2424.026855,1981.094604 2440.378418,1975.781738 2455.792480,1968.529663 
	C2474.123535,1959.905151 2492.135742,1950.311401 2509.309326,1939.575317 
	C2552.466553,1912.595215 2586.569824,1875.883301 2618.222412,1836.503784 
	C2639.066895,1810.570679 2660.860352,1785.380737 2682.756836,1760.319458 
	C2698.071533,1742.790894 2714.483398,1726.225708 2730.033936,1708.897095 
	C2748.265381,1688.581055 2766.065430,1667.878418 2784.105225,1647.390015 
	C2804.328125,1624.422729 2824.931641,1601.781006 2844.770996,1578.487793 
	C2862.675049,1557.467163 2880.100830,1536.016724 2897.124756,1514.275757 
	C2912.101318,1495.148926 2926.255371,1475.376709 2940.722412,1455.852417 
	C2947.853516,1446.228027 2955.917480,1437.101562 2961.695068,1426.713013 
	C2970.379150,1411.098389 2983.360107,1399.069214 2993.771240,1384.942017 
	C3006.751953,1367.328003 3020.327637,1350.152588 3033.616455,1332.764771 
	C3034.417725,1331.716064 3034.989014,1330.481445 3035.600830,1329.299072 
	C3040.794189,1319.263428 3045.754883,1309.100220 3051.192627,1299.199097 
	C3074.668213,1256.454712 3093.616211,1211.830688 3105.924316,1164.612793 
	C3111.016846,1145.075928 3114.778809,1125.153076 3118.317139,1105.258301 
	C3126.013428,1061.983887 3125.271484,1018.527466 3119.026367,975.181519 
	C3113.136963,934.303894 3100.860107,895.290649 3081.116211,858.963501 
	C3032.509277,769.532410 2958.762939,709.418762 2863.327637,675.930969 
	C2797.338867,652.775635 2729.704590,650.815186 2661.519287,665.335144 
	C2600.408691,678.348511 2544.982666,704.276978 2493.777832,739.740417 
	C2450.448730,769.749207 2413.458984,806.626160 2378.318359,845.550476 
	C2330.916748,898.055847 2287.658447,953.895325 2245.416260,1010.554871 
	C2229.099854,1032.439941 2212.775391,1054.318970 2195.715332,1076.067505 
	C2193.317139,1073.621460 2191.085693,1071.530884 2190.088867,1068.961304 
	C2180.729004,1044.838623 2171.878906,1020.514954 2162.291748,996.484558 
	C2151.321289,968.986084 2137.250732,942.969421 2122.274414,917.493835 
	C2106.130615,890.032776 2088.530029,863.486755 2068.330566,838.803223 
	C2054.700684,822.147705 2041.149536,805.348083 2026.413086,789.695923 
	C2001.137939,762.850342 1974.067261,737.899048 1944.695801,715.429199 
	C1924.651367,700.094727 1904.391724,685.114258 1882.624268,672.390259 
	C1853.973511,655.642578 1824.973389,639.486755 1795.969238,623.353638 
	C1788.205322,619.035095 1779.880371,615.725281 1771.918457,611.255920 
	C1777.519653,601.843811 1782.856567,593.023010 1788.537720,584.429749 
	C1819.562012,537.504272 1852.547485,491.951202 1888.273438,448.537109 
	C1938.517456,387.480499 1989.557007,327.071533 2040.754517,266.808685 
	C2090.874756,207.814011 2141.703857,149.422363 2192.043701,90.613770 
	C2209.990967,69.647392 2227.677734,48.415833 2241.940186,24.658897 
	C2246.338135,17.332977 2250.000732,9.565318 2254.000000,1.999991 
	C2382.056152,2.000000 2510.112061,2.000000 2639.083984,2.886470 
	C2639.985840,9.597147 2639.971680,15.421353 2639.137207,21.284901 
	C2622.740234,21.452879 2607.051514,20.429472 2591.607910,21.930023 
	C2548.364502,26.131628 2511.670654,44.423519 2483.596924,77.742256 
	C2453.740479,113.176979 2434.862305,154.431290 2423.673340,199.242767 
	C2415.081787,233.651581 2414.262695,268.168152 2423.213135,302.673859 
	C2432.925049,340.115570 2452.893555,371.392059 2480.597656,398.042999 
	C2533.970947,449.387299 2597.009766,472.717590 2670.937744,462.084747 
	C2724.480713,454.383820 2768.296387,428.043610 2804.089844,387.917664 
	C2821.046387,368.908661 2833.548340,347.123444 2844.294434,324.138184 
	C2855.307373,328.946930 2865.567871,333.673798 2876.009033,337.959991 
	C2908.945557,351.480927 2943.097656,361.031555 2977.960693,367.932129 
	C2992.199951,370.750580 3006.679932,372.501495 3021.120117,374.112823 
	C3036.233643,375.799316 3051.414551,377.427551 3066.596680,377.792114 
	C3080.150146,378.117554 3093.739502,376.460480 3107.324219,376.075989 
	C3132.311523,375.368835 3156.609863,370.712585 3180.667969,364.264801 
	C3187.657715,362.391541 3194.882812,361.397186 3202.000000,360.000000 
M2392.722168,466.385742 
	C2384.736328,455.284576 2376.350830,444.568787 2365.677490,435.810577 
	C2337.288086,412.515350 2304.594482,398.255859 2269.153564,389.912231 
	C2244.959229,384.216309 2220.479980,383.093384 2195.899658,387.233215 
	C2161.882324,392.962463 2132.506592,407.957123 2106.132324,430.218536 
	C2052.252197,475.696075 2035.159790,539.962769 2055.645752,605.981750 
	C2067.939697,645.600952 2091.110596,678.140991 2122.253662,704.985840 
	C2151.318115,730.038940 2185.562256,742.848938 2223.861816,743.251770 
	C2243.522217,743.458557 2262.953125,739.863586 2281.569336,733.066223 
	C2323.351807,717.810059 2357.543457,692.133362 2384.530762,656.940735 
	C2403.396484,632.339172 2414.628662,604.321228 2417.754395,573.561523 
	C2421.602295,535.696716 2414.524902,499.957001 2392.722168,466.385742 
M128.765442,244.517761 
	C158.025177,254.562637 185.180252,250.297775 209.854294,231.844833 
	C230.927917,216.084534 242.886810,194.624115 245.479996,168.579163 
	C248.991089,133.315155 236.078339,101.325790 199.492950,84.955978 
	C184.448532,78.224495 168.900818,73.235046 152.528564,72.778671 
	C134.979187,72.289497 118.066864,75.798576 104.353821,88.160881 
	C83.857178,106.638573 73.576500,130.367874 70.341461,157.193878 
	C67.514694,180.634308 74.939301,201.000061 90.912361,218.504684 
	C101.204865,229.784088 113.180893,238.344269 128.765442,244.517761 
M2858.853760,424.277679 
	C2851.242188,439.543182 2850.453613,455.493896 2854.989014,471.625244 
	C2858.591064,484.437256 2865.418213,495.244385 2877.295898,502.270264 
	C2888.279541,508.767426 2899.967285,512.526306 2912.641846,514.777649 
	C2933.388184,518.462708 2951.288574,513.187073 2965.693115,498.918518 
	C2984.288574,480.498230 2990.276855,457.884674 2982.344238,432.346558 
	C2977.176270,415.707458 2966.574219,402.859222 2951.435791,395.131775 
	C2940.094482,389.342499 2927.574219,386.963287 2913.977783,389.630890 
	C2891.392578,394.062134 2873.043457,404.230255 2858.853760,424.277679 
M252.799271,990.094666 
	C265.950928,1004.620178 281.527100,1010.291992 300.248718,1002.148682 
	C305.954437,999.666931 311.625732,996.313171 316.186127,992.130432 
	C334.481384,975.350342 336.907379,952.626160 323.272247,934.945862 
	C316.480621,926.139465 306.709320,921.815125 296.230469,919.043457 
	C268.550110,911.721802 244.445480,931.888000 240.938736,951.959229 
	C238.470322,966.087524 243.420486,978.064758 252.799271,990.094666 
M2378.352783,90.168915 
	C2370.350830,84.512421 2361.050293,85.104507 2352.344482,86.281189 
	C2338.105469,88.205711 2325.065674,95.856857 2320.609375,108.971703 
	C2312.718506,132.194763 2318.349121,151.016922 2343.985840,159.684128 
	C2346.481934,160.528030 2349.086182,161.193100 2351.693848,161.541260 
	C2361.421875,162.840286 2371.376221,162.958862 2379.516846,156.950119 
	C2404.205566,138.727493 2404.073730,108.941734 2378.352783,90.168915 
z"/>
<path fill="#0F90D1" opacity="1.000000" stroke="none" 
	d="
M2253.062744,1.999991 
	C2250.000732,9.565318 2246.338135,17.332977 2241.940186,24.658897 
	C2227.677734,48.415833 2209.990967,69.647392 2192.043701,90.613770 
	C2141.703857,149.422363 2090.874756,207.814011 2040.754517,266.808685 
	C1989.557007,327.071533 1938.517456,387.480499 1888.273438,448.537109 
	C1852.547485,491.951202 1819.562012,537.504272 1788.537720,584.429749 
	C1782.856567,593.023010 1777.519653,601.843811 1771.355835,611.610718 
	C1730.337769,672.884277 1675.707642,715.353271 1608.756592,742.243286 
	C1546.453369,767.266479 1481.831909,775.563171 1415.092163,768.334900 
	C1366.480713,763.070068 1320.903320,748.620056 1278.162842,724.896240 
	C1237.024414,702.061707 1204.189087,669.834961 1174.111572,634.299438 
	C1143.668579,598.332275 1117.749512,559.410889 1096.356201,517.449768 
	C1088.434448,497.382782 1079.801758,477.561249 1072.765869,457.188354 
	C1063.416626,430.117096 1058.159546,402.104218 1055.593994,373.488831 
	C1047.402588,282.126434 1073.871094,200.687988 1126.441650,127.063347 
	C1144.959229,101.129654 1165.760498,76.820572 1185.656250,51.879135 
	C1198.714233,35.509502 1212.018188,19.335932 1225.605957,2.537273 
	C1568.041870,2.000000 1910.083618,2.000000 2253.062744,1.999991 
z"/>
<path fill="#EFF3F0" opacity="1.000000" stroke="none" 
	d="
M3202.000000,359.062683 
	C3194.882812,361.397186 3187.657715,362.391541 3180.667969,364.264801 
	C3156.609863,370.712585 3132.311523,375.368835 3107.324219,376.075989 
	C3093.739502,376.460480 3080.150146,378.117554 3066.596680,377.792114 
	C3051.414551,377.427551 3036.233643,375.799316 3021.120117,374.112823 
	C3006.679932,372.501495 2992.199951,370.750580 2977.960693,367.932129 
	C2943.097656,361.031555 2908.945557,351.480927 2876.009033,337.959991 
	C2865.567871,333.673798 2855.307373,328.946930 2844.468018,323.405212 
	C2862.538330,272.957367 2866.015869,222.613464 2851.641357,171.653290 
	C2839.683105,129.258606 2816.882080,94.021965 2778.892334,70.250381 
	C2736.296387,43.596493 2690.204834,26.421623 2639.957520,21.245560 
	C2639.971680,15.421353 2639.985840,9.597147 2640.000000,2.886470 
	C2827.155029,2.000000 3014.310059,2.000000 3202.000000,2.000000 
	C3202.000000,120.707916 3202.000000,239.416641 3202.000000,359.062683 
z"/>
<path fill="#1090D1" opacity="1.000000" stroke="none" 
	d="
M3202.000000,795.062683 
	C3198.093750,796.626709 3194.177734,797.198425 3190.282715,797.888428 
	C3148.826660,805.232788 3113.213379,793.843384 3083.298096,764.409241 
	C3059.112793,740.612915 3042.949219,712.476624 3037.641357,678.631409 
	C3031.599121,640.101318 3042.333008,606.688293 3069.316650,578.760315 
	C3097.852295,549.226501 3132.501221,533.760620 3174.045166,535.871460 
	C3182.889648,536.320862 3191.660156,538.231873 3201.232422,539.734741 
	C3202.000000,624.708435 3202.000000,709.416931 3202.000000,795.062683 
z"/>
<path fill="#EFF3F0" opacity="1.000000" stroke="none" 
	d="
M1095.874512,518.078979 
	C1117.749512,559.410889 1143.668579,598.332275 1174.111572,634.299438 
	C1204.189087,669.834961 1237.024414,702.061707 1278.162842,724.896240 
	C1320.903320,748.620056 1366.480713,763.070068 1415.092163,768.334900 
	C1481.831909,775.563171 1546.453369,767.266479 1608.756592,742.243286 
	C1675.707642,715.353271 1730.337769,672.884277 1771.250366,612.307007 
	C1779.880371,615.725281 1788.205322,619.035095 1795.969238,623.353638 
	C1824.973389,639.486755 1853.973511,655.642578 1882.624268,672.390259 
	C1904.391724,685.114258 1924.651367,700.094727 1944.695801,715.429199 
	C1974.067261,737.899048 2001.137939,762.850342 2026.413086,789.695923 
	C2041.149536,805.348083 2054.700684,822.147705 2068.330566,838.803223 
	C2088.530029,863.486755 2106.130615,890.032776 2122.274414,917.493835 
	C2137.250732,942.969421 2151.321289,968.986084 2162.291748,996.484558 
	C2171.878906,1020.514954 2180.729004,1044.838623 2190.088867,1068.961304 
	C2191.085693,1071.530884 2193.317139,1073.621460 2195.532471,1076.735840 
	C2173.146973,1108.636597 2150.411621,1139.890747 2127.219238,1170.802124 
	C2080.991943,1232.414795 2032.827393,1292.388672 1978.221924,1346.951172 
	C1922.038940,1403.089844 1890.169189,1471.006104 1881.702026,1549.877563 
	C1877.743286,1586.753784 1878.784790,1623.463379 1885.541138,1660.067139 
	C1896.853027,1721.353516 1920.600098,1777.318359 1957.001099,1827.736084 
	C1969.629395,1845.227173 1984.226440,1861.296997 1997.924316,1878.015869 
	C1994.974731,1879.990234 1991.638062,1881.568237 1989.141113,1884.006348 
	C1976.750000,1896.105347 1964.925659,1908.802734 1952.251099,1920.589355 
	C1933.555176,1937.975342 1914.459717,1954.941162 1895.264893,1971.778687 
	C1860.312744,2002.438232 1823.084351,2030.174683 1783.855713,2055.044678 
	C1757.807495,2071.558838 1730.796875,2086.571777 1704.034302,2101.938477 
	C1667.087646,2123.152344 1627.839966,2139.494385 1588.151611,2154.615234 
	C1564.918823,2163.466797 1541.086792,2170.957764 1517.123901,2177.620850 
	C1493.237671,2184.263428 1468.943237,2189.551514 1444.651489,2194.582031 
	C1428.831177,2197.858398 1412.722046,2199.805420 1396.693970,2201.994141 
	C1380.662964,2204.183350 1364.604004,2207.204346 1348.500488,2207.611084 
	C1314.218018,2208.477783 1279.892456,2208.272217 1245.597656,2207.706787 
	C1231.429077,2207.473389 1217.235596,2205.620605 1203.159668,2203.718018 
	C1187.456421,2201.595947 1171.708374,2199.305908 1156.275391,2195.791504 
	C1129.822144,2189.767822 1103.598511,2182.735840 1076.879395,2175.442627 
	C1109.572632,2148.098633 1125.515991,2112.779541 1127.953003,2071.047363 
	C1128.548706,2060.846191 1127.655273,2050.361816 1125.945190,2040.261841 
	C1121.970703,2016.789551 1112.436646,1995.899048 1095.340332,1978.702515 
	C1080.907227,1964.184570 1062.801025,1956.030029 1044.488770,1948.250366 
	C1020.165833,1937.916992 994.625305,1933.737793 968.310852,1935.901123 
	C941.734314,1938.086182 918.694275,1948.609009 901.368896,1969.158813 
	C877.332214,1997.668579 864.044067,2030.995605 859.908386,2068.008545 
	C838.268066,2053.201904 818.216614,2036.421875 798.223083,2019.484741 
	C773.313171,1998.382324 749.968872,1975.684204 727.427551,1952.176758 
	C712.526794,1936.637451 698.376099,1920.317749 684.693604,1903.686035 
	C666.598877,1881.690918 648.861389,1859.370972 631.757507,1836.599487 
	C612.420166,1810.854614 594.705017,1783.951172 578.968079,1755.827515 
	C566.638123,1733.792480 553.965820,1711.896973 542.817200,1689.263916 
	C519.745178,1642.424805 500.414062,1594.008301 485.072296,1544.060547 
	C474.756470,1510.475586 466.698914,1476.290771 460.518158,1441.748901 
	C456.565979,1419.661865 455.069061,1397.147339 451.880859,1374.908936 
	C446.285828,1335.882690 448.127167,1296.644653 448.202911,1257.475220 
	C448.226440,1245.313477 450.273254,1233.120239 451.871307,1221.004395 
	C455.111267,1196.440186 457.933990,1171.784058 462.355988,1147.424927 
	C465.600616,1129.551636 470.376617,1111.859375 475.797089,1094.500854 
	C483.904572,1068.537231 492.391998,1042.634888 502.167480,1017.265198 
	C512.794739,989.684875 525.803345,963.108826 540.979614,937.650452 
	C550.145691,922.274231 558.960876,906.688904 568.874512,890.510132 
	C581.072510,890.450928 592.323730,891.298096 603.589600,891.606201 
	C608.516968,891.740967 613.485840,890.870483 618.416138,890.289185 
	C637.840393,887.999207 657.546692,887.038635 676.626953,883.074890 
	C770.036133,863.669739 847.435364,816.406067 910.786621,745.652832 
	C945.542419,706.836243 971.934814,662.838684 990.065796,613.956360 
	C998.500610,591.215759 1005.951660,568.184387 1009.527039,544.082275 
	C1016.140991,542.195923 1022.773193,540.370789 1029.365723,538.411865 
	C1051.382446,531.869873 1073.385010,525.279907 1095.874512,518.078979 
M1185.193237,1614.193481 
	C1218.031982,1582.262817 1244.094727,1545.587769 1262.321411,1503.499146 
	C1286.100586,1448.588867 1294.746460,1391.347046 1287.577515,1331.925903 
	C1282.830444,1292.578613 1271.094604,1255.343262 1251.992310,1220.490356 
	C1230.525024,1181.322632 1201.836914,1148.537842 1165.500977,1122.580566 
	C1132.787231,1099.210938 1096.832764,1081.999146 1059.482666,1067.459839 
	C1013.164612,1049.429443 965.094482,1039.911499 915.528381,1038.646606 
	C899.342529,1038.233521 883.039185,1040.165161 866.870056,1041.814209 
	C831.122437,1045.459717 797.166077,1055.858154 764.715332,1071.011963 
	C711.930115,1095.661255 667.648010,1131.491211 630.707092,1176.203857 
	C585.359619,1231.091919 563.388550,1294.814819 562.594238,1365.786865 
	C562.435181,1379.997559 564.161133,1394.279053 565.720886,1408.450439 
	C571.267517,1458.845825 588.759399,1505.237549 613.470764,1549.176270 
	C629.872009,1578.338867 649.777893,1604.960205 672.419312,1629.465820 
	C700.846436,1660.233154 732.744812,1686.789673 770.335999,1705.845581 
	C821.948242,1732.009399 876.492920,1743.204346 934.398132,1738.434082 
	C967.496948,1735.707397 999.365173,1728.350464 1030.313965,1716.640869 
	C1089.198975,1694.361206 1139.705811,1659.332886 1185.193237,1614.193481 
M1743.137939,1113.824951 
	C1745.493774,1116.180908 1747.816284,1118.571533 1750.210693,1120.887573 
	C1781.826172,1151.469849 1819.097168,1162.012939 1862.015747,1152.294678 
	C1884.900635,1147.112549 1904.938721,1135.973755 1922.881470,1121.316772 
	C1948.138306,1100.684814 1968.356201,1076.203369 1975.065552,1043.215088 
	C1984.662231,996.030273 1972.669800,955.817810 1935.446533,923.927979 
	C1924.886230,914.880859 1912.692749,908.863953 1900.340576,903.151855 
	C1870.629272,889.412231 1839.559937,883.885010 1807.100586,890.373596 
	C1778.797852,896.031311 1755.509399,910.580750 1735.375244,931.139343 
	C1708.218872,958.867615 1696.501465,991.298523 1701.663940,1029.995605 
	C1705.964233,1062.229370 1720.486816,1089.201782 1743.137939,1113.824951 
M1160.830933,767.595093 
	C1168.432495,751.225708 1171.813721,734.062805 1169.650269,716.093506 
	C1166.368896,688.840027 1153.757202,667.898315 1128.396851,655.391663 
	C1113.614746,648.101868 1098.389526,642.843018 1081.928345,641.214966 
	C1058.763550,638.923889 1037.813599,644.234619 1022.047668,661.842041 
	C1005.189392,680.669312 995.449524,703.256836 993.908630,728.726013 
	C992.157593,757.669189 1004.523865,780.461365 1026.788208,797.937073 
	C1053.546387,818.939880 1083.259277,823.856506 1115.013794,810.944702 
	C1135.178955,802.745239 1149.969116,788.164124 1160.830933,767.595093 
M1740.010010,1166.608398 
	C1734.884155,1171.301880 1729.335327,1175.615479 1724.713257,1180.761475 
	C1711.682861,1195.268799 1713.125366,1220.111328 1724.114990,1231.266724 
	C1730.108276,1237.350464 1736.317383,1243.584473 1743.489136,1248.046997 
	C1751.376343,1252.954590 1760.516968,1254.946533 1770.240845,1253.064941 
	C1794.202881,1248.428345 1806.687866,1226.785034 1805.580933,1204.400269 
	C1804.095093,1174.355225 1770.819092,1148.215698 1740.010010,1166.608398 
M1136.330078,1711.324341 
	C1135.836426,1729.233521 1144.677612,1742.366699 1158.182129,1752.758423 
	C1164.018799,1757.249634 1170.963623,1759.325684 1178.562378,1759.780029 
	C1197.415527,1760.907593 1217.354858,1745.596802 1224.061646,1730.884766 
	C1232.091064,1713.270996 1227.798584,1693.712280 1212.701782,1682.650757 
	C1206.928467,1678.420410 1200.044800,1675.079102 1193.159180,1673.103760 
	C1166.595825,1665.483398 1140.842285,1682.323608 1136.330078,1711.324341 
M1201.767578,2079.849854 
	C1212.855347,2076.909668 1221.593018,2070.214111 1228.540649,2061.533203 
	C1240.684448,2046.359253 1242.913574,2029.426758 1233.990112,2012.021240 
	C1225.624390,1995.703369 1211.024292,1989.635498 1193.314209,1990.379150 
	C1173.483765,1991.211792 1156.201416,2004.034058 1152.704224,2021.519287 
	C1145.563965,2057.219238 1170.192261,2084.966553 1201.767578,2079.849854 
M1244.201660,811.668396 
	C1245.382568,811.053711 1246.616333,810.522400 1247.736450,809.811951 
	C1265.462036,798.568665 1272.602417,777.253357 1265.478027,758.560303 
	C1258.184448,739.423340 1230.976929,731.951172 1216.937256,734.784424 
	C1192.776611,739.659912 1179.236084,774.794556 1193.104858,796.198425 
	C1201.985962,809.904907 1222.569092,821.599304 1244.201660,811.668396 
M1258.253784,1616.850830 
	C1252.824341,1603.472778 1238.573853,1597.235352 1225.579712,1602.549194 
	C1217.542725,1605.836060 1211.269165,1616.176636 1212.460449,1624.174194 
	C1213.961060,1634.249878 1224.436401,1645.961182 1233.096924,1645.837769 
	C1246.192505,1645.651001 1261.905884,1633.708740 1258.253784,1616.850830 
z"/>
<path fill="#0F90D1" opacity="1.000000" stroke="none" 
	d="
M1998.524658,1878.309814 
	C1984.226440,1861.296997 1969.629395,1845.227173 1957.001099,1827.736084 
	C1920.600098,1777.318359 1896.853027,1721.353516 1885.541138,1660.067139 
	C1878.784790,1623.463379 1877.743286,1586.753784 1881.702026,1549.877563 
	C1890.169189,1471.006104 1922.038940,1403.089844 1978.221924,1346.951172 
	C2032.827393,1292.388672 2080.991943,1232.414795 2127.219238,1170.802124 
	C2150.411621,1139.890747 2173.146973,1108.636597 2196.271973,1076.869141 
	C2212.775391,1054.318970 2229.099854,1032.439941 2245.416260,1010.554871 
	C2287.658447,953.895325 2330.916748,898.055847 2378.318359,845.550476 
	C2413.458984,806.626160 2450.448730,769.749207 2493.777832,739.740417 
	C2544.982666,704.276978 2600.408691,678.348511 2661.519287,665.335144 
	C2729.704590,650.815186 2797.338867,652.775635 2863.327637,675.930969 
	C2958.762939,709.418762 3032.509277,769.532410 3081.116211,858.963501 
	C3100.860107,895.290649 3113.136963,934.303894 3119.026367,975.181519 
	C3125.271484,1018.527466 3126.013428,1061.983887 3118.317139,1105.258301 
	C3114.778809,1125.153076 3111.016846,1145.075928 3105.924316,1164.612793 
	C3093.616211,1211.830688 3074.668213,1256.454712 3051.192627,1299.199097 
	C3045.754883,1309.100220 3040.794189,1319.263428 3035.600830,1329.299072 
	C3034.989014,1330.481445 3034.417725,1331.716064 3033.616455,1332.764771 
	C3020.327637,1350.152588 3006.751953,1367.328003 2993.771240,1384.942017 
	C2983.360107,1399.069214 2970.379150,1411.098389 2961.695068,1426.713013 
	C2955.917480,1437.101562 2947.853516,1446.228027 2940.722412,1455.852417 
	C2926.255371,1475.376709 2912.101318,1495.148926 2897.124756,1514.275757 
	C2880.100830,1536.016724 2862.675049,1557.467163 2844.770996,1578.487793 
	C2824.931641,1601.781006 2804.328125,1624.422729 2784.105225,1647.390015 
	C2766.065430,1667.878418 2748.265381,1688.581055 2730.033936,1708.897095 
	C2714.483398,1726.225708 2698.071533,1742.790894 2682.756836,1760.319458 
	C2660.860352,1785.380737 2639.066895,1810.570679 2618.222412,1836.503784 
	C2586.569824,1875.883301 2552.466553,1912.595215 2509.309326,1939.575317 
	C2492.135742,1950.311401 2474.123535,1959.905151 2455.792480,1968.529663 
	C2440.378418,1975.781738 2424.026855,1981.094604 2407.925781,1986.802856 
	C2402.364502,1988.774658 2396.254150,1989.138062 2390.489990,1990.609985 
	C2376.723633,1994.125122 2363.114746,1998.325562 2349.243652,2001.332886 
	C2341.183594,2003.080322 2332.751465,2003.515259 2324.465576,2003.737061 
	C2305.839844,2004.235229 2287.166016,2005.064941 2268.573730,2004.285278 
	C2199.820068,2001.401855 2136.966553,1979.591064 2078.853271,1943.386475 
	C2049.577393,1925.147583 2023.228271,1903.241577 1998.524658,1878.309814 
z"/>
<path fill="#3A62D3" opacity="1.000000" stroke="none" 
	d="
M1009.498840,543.206177 
	C1005.951660,568.184387 998.500610,591.215759 990.065796,613.956360 
	C971.934814,662.838684 945.542419,706.836243 910.786621,745.652832 
	C847.435364,816.406067 770.036133,863.669739 676.626953,883.074890 
	C657.546692,887.038635 637.840393,887.999207 618.416138,890.289185 
	C613.485840,890.870483 608.516968,891.740967 603.589600,891.606201 
	C592.323730,891.298096 581.072510,890.450928 568.955811,889.782837 
	C559.907043,888.643250 551.728455,887.456665 543.527039,886.457581 
	C478.854767,878.579651 419.746033,855.573486 365.681793,819.742004 
	C313.201843,784.960693 268.452301,742.040344 233.895798,689.100952 
	C203.786270,642.974182 184.781784,592.683594 177.534119,537.895081 
	C171.892395,495.246704 173.451065,452.936310 181.013458,410.721497 
	C193.671799,340.060272 221.301849,275.217712 257.435211,213.645355 
	C272.491669,187.988708 289.553864,163.932785 310.063782,142.240479 
	C349.735535,100.281723 397.348358,71.751396 452.855469,56.314892 
	C500.277557,43.126827 548.535095,40.805679 597.343262,45.573406 
	C696.489990,55.258339 786.723450,90.083687 870.069031,143.386780 
	C913.015747,170.853058 944.978577,209.084427 969.618469,253.430664 
	C995.358704,299.757294 1009.715088,349.782166 1015.493652,402.216034 
	C1020.367615,446.441681 1018.884705,490.592926 1010.534546,534.407593 
	C1010.036438,537.021057 1009.818787,539.687927 1009.498840,543.206177 
z"/>
<path fill="#3B62D3" opacity="1.000000" stroke="none" 
	d="
M2639.137451,21.284901 
	C2690.204834,26.421623 2736.296387,43.596493 2778.892334,70.250381 
	C2816.882080,94.021965 2839.683105,129.258606 2851.641357,171.653290 
	C2866.015869,222.613464 2862.538330,272.957367 2843.798096,323.121643 
	C2833.548340,347.123444 2821.046387,368.908661 2804.089844,387.917664 
	C2768.296387,428.043610 2724.480713,454.383820 2670.937744,462.084747 
	C2597.009766,472.717590 2533.970947,449.387299 2480.597656,398.042999 
	C2452.893555,371.392059 2432.925049,340.115570 2423.213135,302.673859 
	C2414.262695,268.168152 2415.081787,233.651581 2423.673340,199.242767 
	C2434.862305,154.431290 2453.740479,113.176979 2483.596924,77.742256 
	C2511.670654,44.423519 2548.364502,26.131628 2591.607910,21.930023 
	C2607.051514,20.429472 2622.740234,21.452879 2639.137451,21.284901 
z"/>
<path fill="#56C6FF" opacity="1.000000" stroke="none" 
	d="
M2393.134033,466.982849 
	C2414.524902,499.957001 2421.602295,535.696716 2417.754395,573.561523 
	C2414.628662,604.321228 2403.396484,632.339172 2384.530762,656.940735 
	C2357.543457,692.133362 2323.351807,717.810059 2281.569336,733.066223 
	C2262.953125,739.863586 2243.522217,743.458557 2223.861816,743.251770 
	C2185.562256,742.848938 2151.318115,730.038940 2122.253662,704.985840 
	C2091.110596,678.140991 2067.939697,645.600952 2055.645752,605.981750 
	C2035.159790,539.962769 2052.252197,475.696075 2106.132324,430.218536 
	C2132.506592,407.957123 2161.882324,392.962463 2195.899658,387.233215 
	C2220.479980,383.093384 2244.959229,384.216309 2269.153564,389.912231 
	C2304.594482,398.255859 2337.288086,412.515350 2365.677490,435.810577 
	C2376.350830,444.568787 2384.736328,455.284576 2393.134033,466.982849 
z"/>
<path fill="#254AFF" opacity="1.000000" stroke="none" 
	d="
M860.079956,2068.912598 
	C864.044067,2030.995605 877.332214,1997.668579 901.368896,1969.158813 
	C918.694275,1948.609009 941.734314,1938.086182 968.310852,1935.901123 
	C994.625305,1933.737793 1020.165833,1937.916992 1044.488770,1948.250366 
	C1062.801025,1956.030029 1080.907227,1964.184570 1095.340332,1978.702515 
	C1112.436646,1995.899048 1121.970703,2016.789551 1125.945190,2040.261841 
	C1127.655273,2050.361816 1128.548706,2060.846191 1127.953003,2071.047363 
	C1125.515991,2112.779541 1109.572632,2148.098633 1076.113037,2175.323975 
	C1063.163696,2183.944580 1050.656494,2192.062500 1036.347168,2196.976318 
	C1017.872131,2203.320801 998.774231,2206.070312 979.590759,2203.729736 
	C952.448792,2200.417725 928.286621,2189.269043 907.157593,2171.653564 
	C889.445801,2156.886963 875.697388,2138.948975 867.272217,2117.731445 
	C862.963196,2106.879639 862.329895,2094.522217 860.442932,2082.779541 
	C859.764465,2078.557373 860.280640,2074.143311 860.079956,2068.912598 
z"/>
<path fill="#3B63D3" opacity="1.000000" stroke="none" 
	d="
M128.009567,244.304489 
	C113.180893,238.344269 101.204865,229.784088 90.912361,218.504684 
	C74.939301,201.000061 67.514694,180.634308 70.341461,157.193878 
	C73.576500,130.367874 83.857178,106.638573 104.353821,88.160881 
	C118.066864,75.798576 134.979187,72.289497 152.528564,72.778671 
	C168.900818,73.235046 184.448532,78.224495 199.492950,84.955978 
	C236.078339,101.325790 248.991089,133.315155 245.479996,168.579163 
	C242.886810,194.624115 230.927917,216.084534 209.854294,231.844833 
	C185.180252,250.297775 158.025177,254.562637 128.009567,244.304489 
z"/>
<path fill="#EFF3F0" opacity="1.000000" stroke="none" 
	d="
M2859.210449,423.617615 
	C2873.043457,404.230255 2891.392578,394.062134 2913.977783,389.630890 
	C2927.574219,386.963287 2940.094482,389.342499 2951.435791,395.131775 
	C2966.574219,402.859222 2977.176270,415.707458 2982.344238,432.346558 
	C2990.276855,457.884674 2984.288574,480.498230 2965.693115,498.918518 
	C2951.288574,513.187073 2933.388184,518.462708 2912.641846,514.777649 
	C2899.967285,512.526306 2888.279541,508.767426 2877.295898,502.270264 
	C2865.418213,495.244385 2858.591064,484.437256 2854.989014,471.625244 
	C2850.453613,455.493896 2851.242188,439.543182 2859.210449,423.617615 
z"/>
<path fill="#57C7FF" opacity="1.000000" stroke="none" 
	d="
M252.336075,989.541626 
	C243.420486,978.064758 238.470322,966.087524 240.938736,951.959229 
	C244.445480,931.888000 268.550110,911.721802 296.230469,919.043457 
	C306.709320,921.815125 316.480621,926.139465 323.272247,934.945862 
	C336.907379,952.626160 334.481384,975.350342 316.186127,992.130432 
	C311.625732,996.313171 305.954437,999.666931 300.248718,1002.148682 
	C281.527100,1010.291992 265.950928,1004.620178 252.336075,989.541626 
z"/>
<path fill="#EFF3F0" opacity="1.000000" stroke="none" 
	d="
M2379.009766,90.561165 
	C2404.073730,108.941734 2404.205566,138.727493 2379.516846,156.950119 
	C2371.376221,162.958862 2361.421875,162.840286 2351.693848,161.541260 
	C2349.086182,161.193100 2346.481934,160.528030 2343.985840,159.684128 
	C2318.349121,151.016922 2312.718506,132.194763 2320.609375,108.971703 
	C2325.065674,95.856857 2338.105469,88.205711 2352.344482,86.281189 
	C2361.050293,85.104507 2370.350830,84.512421 2379.009766,90.561165 
z"/>
<path fill="#2449FF" opacity="1.000000" stroke="none" 
	d="
M1184.693115,1614.693604 
	C1139.705811,1659.332886 1089.198975,1694.361206 1030.313965,1716.640869 
	C999.365173,1728.350464 967.496948,1735.707397 934.398132,1738.434082 
	C876.492920,1743.204346 821.948242,1732.009399 770.335999,1705.845581 
	C732.744812,1686.789673 700.846436,1660.233154 672.419312,1629.465820 
	C649.777893,1604.960205 629.872009,1578.338867 613.470764,1549.176270 
	C588.759399,1505.237549 571.267517,1458.845825 565.720886,1408.450439 
	C564.161133,1394.279053 562.435181,1379.997559 562.594238,1365.786865 
	C563.388550,1294.814819 585.359619,1231.091919 630.707092,1176.203857 
	C667.648010,1131.491211 711.930115,1095.661255 764.715332,1071.011963 
	C797.166077,1055.858154 831.122437,1045.459717 866.870056,1041.814209 
	C883.039185,1040.165161 899.342529,1038.233521 915.528381,1038.646606 
	C965.094482,1039.911499 1013.164612,1049.429443 1059.482666,1067.459839 
	C1096.832764,1081.999146 1132.787231,1099.210938 1165.500977,1122.580566 
	C1201.836914,1148.537842 1230.525024,1181.322632 1251.992310,1220.490356 
	C1271.094604,1255.343262 1282.830444,1292.578613 1287.577515,1331.925903 
	C1294.746460,1391.347046 1286.100586,1448.588867 1262.321411,1503.499146 
	C1244.094727,1545.587769 1218.031982,1582.262817 1184.693115,1614.693604 
z"/>
<path fill="#56C6FF" opacity="1.000000" stroke="none" 
	d="
M1742.638184,1113.323364 
	C1720.486816,1089.201782 1705.964233,1062.229370 1701.663940,1029.995605 
	C1696.501465,991.298523 1708.218872,958.867615 1735.375244,931.139343 
	C1755.509399,910.580750 1778.797852,896.031311 1807.100586,890.373596 
	C1839.559937,883.885010 1870.629272,889.412231 1900.340576,903.151855 
	C1912.692749,908.863953 1924.886230,914.880859 1935.446533,923.927979 
	C1972.669800,955.817810 1984.662231,996.030273 1975.065552,1043.215088 
	C1968.356201,1076.203369 1948.138306,1100.684814 1922.881470,1121.316772 
	C1904.938721,1135.973755 1884.900635,1147.112549 1862.015747,1152.294678 
	C1819.097168,1162.012939 1781.826172,1151.469849 1750.210693,1120.887573 
	C1747.816284,1118.571533 1745.493774,1116.180908 1742.638184,1113.323364 
z"/>
<path fill="#1191D1" opacity="1.000000" stroke="none" 
	d="
M1160.494873,768.266663 
	C1149.969116,788.164124 1135.178955,802.745239 1115.013794,810.944702 
	C1083.259277,823.856506 1053.546387,818.939880 1026.788208,797.937073 
	C1004.523865,780.461365 992.157593,757.669189 993.908630,728.726013 
	C995.449524,703.256836 1005.189392,680.669312 1022.047668,661.842041 
	C1037.813599,644.234619 1058.763550,638.923889 1081.928345,641.214966 
	C1098.389526,642.843018 1113.614746,648.101868 1128.396851,655.391663 
	C1153.757202,667.898315 1166.368896,688.840027 1169.650269,716.093506 
	C1171.813721,734.062805 1168.432495,751.225708 1160.494873,768.266663 
z"/>
<path fill="#57C7FF" opacity="1.000000" stroke="none" 
	d="
M1740.628540,1166.181641 
	C1770.819092,1148.215698 1804.095093,1174.355225 1805.580933,1204.400269 
	C1806.687866,1226.785034 1794.202881,1248.428345 1770.240845,1253.064941 
	C1760.516968,1254.946533 1751.376343,1252.954590 1743.489136,1248.046997 
	C1736.317383,1243.584473 1730.108276,1237.350464 1724.114990,1231.266724 
	C1713.125366,1220.111328 1711.682861,1195.268799 1724.713257,1180.761475 
	C1729.335327,1175.615479 1734.884155,1171.301880 1740.628540,1166.181641 
z"/>
<path fill="#362FFF" opacity="1.000000" stroke="none" 
	d="
M1136.335938,1710.476318 
	C1140.842285,1682.323608 1166.595825,1665.483398 1193.159180,1673.103760 
	C1200.044800,1675.079102 1206.928467,1678.420410 1212.701782,1682.650757 
	C1227.798584,1693.712280 1232.091064,1713.270996 1224.061646,1730.884766 
	C1217.354858,1745.596802 1197.415527,1760.907593 1178.562378,1759.780029 
	C1170.963623,1759.325684 1164.018799,1757.249634 1158.182129,1752.758423 
	C1144.677612,1742.366699 1135.836426,1729.233521 1136.335938,1710.476318 
z"/>
<path fill="#274BFF" opacity="1.000000" stroke="none" 
	d="
M1200.915894,2079.977539 
	C1170.192261,2084.966553 1145.563965,2057.219238 1152.704224,2021.519287 
	C1156.201416,2004.034058 1173.483765,1991.211792 1193.314209,1990.379150 
	C1211.024292,1989.635498 1225.624390,1995.703369 1233.990112,2012.021240 
	C1242.913574,2029.426758 1240.684448,2046.359253 1228.540649,2061.533203 
	C1221.593018,2070.214111 1212.855347,2076.909668 1200.915894,2079.977539 
z"/>
<path fill="#1291D1" opacity="1.000000" stroke="none" 
	d="
M1243.491943,811.964661 
	C1222.569092,821.599304 1201.985962,809.904907 1193.104858,796.198425 
	C1179.236084,774.794556 1192.776611,739.659912 1216.937256,734.784424 
	C1230.976929,731.951172 1258.184448,739.423340 1265.478027,758.560303 
	C1272.602417,777.253357 1265.462036,798.568665 1247.736450,809.811951 
	C1246.616333,810.522400 1245.382568,811.053711 1243.491943,811.964661 
z"/>
<path fill="#3730FF" opacity="1.000000" stroke="none" 
	d="
M1258.392090,1617.598389 
	C1261.905884,1633.708740 1246.192505,1645.651001 1233.096924,1645.837769 
	C1224.436401,1645.961182 1213.961060,1634.249878 1212.460449,1624.174194 
	C1211.269165,1616.176636 1217.542725,1605.836060 1225.579712,1602.549194 
	C1238.573853,1597.235352 1252.824341,1603.472778 1258.392090,1617.598389 
z"/>
</svg>