<svg version="1.1" id="Layer_1" xmlns="http://www.w3.org/2000/svg" xmlns:xlink="http://www.w3.org/1999/xlink" x="0px" y="0px"
	 width="100%" viewBox="0 0 3200 2400" enable-background="new 0 0 3200 2400" xml:space="preserve">
<path fill="#000000" opacity="1.000000" stroke="none" 
	d="
M3202.000000,360.000000 
	C3202.000000,418.722748 3202.000000,477.445465 3201.160645,537.326050 
	C3181.294434,534.700073 3162.085938,533.800354 3143.025635,537.240417 
	C3113.218506,542.620300 3088.570068,557.542236 3067.825928,579.496826 
	C3049.594727,598.791748 3038.374023,621.237427 3036.172607,647.728638 
	C3032.148682,696.158386 3052.130127,735.263245 3085.624756,768.033447 
	C3104.333984,786.338318 3127.720215,796.806824 3154.120117,800.516479 
	C3154.885010,800.737854 3155.478027,800.641968 3156.977539,800.456665 
	C3164.566895,800.428101 3171.250000,800.488953 3178.170898,800.819580 
	C3178.957275,800.794434 3179.505615,800.499634 3180.828125,799.995239 
	C3188.401611,798.523743 3195.200684,797.261902 3202.000000,796.000000 
	C3202.000000,1331.280518 3202.000000,1866.561035 3202.000000,2401.920898 
	C2135.491455,2401.920898 1068.982910,2401.920898 2.237189,2401.920898 
	C2.237189,1602.237183 2.237189,802.474182 2.237189,2.000000 
	C408.722473,2.000000 815.445312,2.000000 1223.112183,2.701072 
	C1205.149536,26.973450 1186.405762,50.677753 1167.294922,74.082214 
	C1143.729248,102.942238 1120.319946,131.878281 1102.125244,164.600281 
	C1066.184814,229.236862 1048.857544,297.887695 1055.463379,372.233765 
	C1058.636963,407.950897 1066.540771,442.349884 1079.129883,475.755219 
	C1084.508789,490.028625 1090.692993,503.998566 1095.727295,518.246826 
	C1066.609131,526.938354 1038.275024,535.489380 1009.877136,543.186035 
	C1010.223633,539.373840 1010.661926,536.419434 1011.039551,533.457397 
	C1013.262695,516.019836 1016.353699,498.637604 1017.489075,481.128845 
	C1019.427856,451.230255 1018.427185,421.345917 1014.319824,391.570526 
	C1006.912354,337.873474 990.677124,287.289948 962.379578,240.830170 
	C937.775940,200.435394 906.455200,166.244202 866.588989,140.656967 
	C823.590515,113.059357 777.669373,91.156960 729.294250,74.588928 
	C666.590942,53.113609 602.499634,40.447968 535.776855,43.539886 
	C516.795105,44.419495 498.019287,46.298969 479.418976,49.882256 
	C399.479553,65.282295 335.041901,105.784004 285.872742,170.484604 
	C258.540222,206.450836 237.665909,246.223358 219.254837,287.303436 
	C194.723801,342.038757 179.004013,399.197784 174.512863,459.107513 
	C172.498062,485.984070 173.821136,512.857971 177.529602,539.676025 
	C186.690033,605.920349 212.429657,665.002563 253.856277,717.156555 
	C293.838074,767.491638 341.705963,808.750366 398.384277,839.573059 
	C442.685516,863.664856 489.672791,879.380371 539.623108,886.248169 
	C549.135559,887.556030 558.656372,888.803345 568.010437,890.756592 
	C528.157166,951.809692 497.228180,1016.364441 477.471161,1085.892578 
	C468.361572,1117.950684 460.268158,1150.467407 454.650208,1183.278809 
	C451.702118,1200.497192 449.232513,1218.266113 449.497284,1236.126099 
	C449.698547,1249.703125 447.695068,1263.308350 447.803253,1276.891968 
	C448.025726,1304.813965 448.831604,1332.735596 449.743286,1360.645996 
	C450.243103,1375.947144 450.809174,1391.290039 454.009308,1406.353882 
	C457.806946,1424.230225 459.659454,1442.413452 463.439301,1460.339233 
	C474.631287,1513.417480 489.770508,1565.248779 509.688263,1615.670288 
	C539.494995,1691.126099 578.052795,1761.863159 624.728394,1828.219238 
	C653.834412,1869.597412 685.524902,1908.916626 720.364197,1945.525879 
	C743.269226,1969.594849 767.113037,1992.909668 791.986450,2014.924072 
	C813.569214,2034.025757 837.190002,2050.824707 859.997925,2069.520020 
	C859.885193,2086.095459 861.518738,2101.505859 867.022278,2116.351807 
	C876.703552,2142.467529 893.816650,2162.847412 916.271423,2178.710693 
	C945.662354,2199.473877 978.141968,2208.034424 1014.177368,2202.482422 
	C1037.120483,2198.947510 1057.002197,2188.925293 1076.432617,2176.294434 
	C1109.283569,2186.583984 1141.872681,2194.627686 1175.185425,2199.938965 
	C1191.608154,2202.557373 1207.828369,2205.912598 1224.569214,2206.400879 
	C1242.107178,2206.912598 1259.600220,2209.139648 1277.135864,2209.503174 
	C1294.047852,2209.853271 1311.009277,2209.150391 1327.912598,2208.237305 
	C1346.679443,2207.223389 1365.437622,2205.772217 1384.138794,2203.903809 
	C1399.690674,2202.350098 1415.234497,2200.388672 1430.644409,2197.792480 
	C1511.985352,2184.089355 1589.599365,2158.481934 1664.026123,2123.215820 
	C1736.701782,2088.779785 1804.132324,2045.810913 1867.321777,1996.137695 
	C1913.402466,1959.913452 1955.947021,1919.814575 1997.198975,1878.163086 
	C2004.745728,1885.140747 2011.787720,1891.725098 2018.843140,1898.294922 
	C2056.549561,1933.405396 2099.615723,1960.198242 2147.488281,1978.828247 
	C2202.416504,2000.203979 2259.353027,2008.853882 2318.463623,2004.653564 
	C2345.241699,2002.750854 2370.823242,1996.624146 2396.443359,1989.744141 
	C2406.303467,1987.096191 2416.150391,1984.382812 2425.916992,1981.413818 
	C2429.336670,1980.374390 2432.512695,1978.513428 2435.769531,1976.963745 
	C2438.755615,1975.542969 2441.608154,1973.795166 2444.682861,1972.617065 
	C2450.865479,1970.248291 2457.476074,1968.799805 2463.345703,1965.848511 
	C2478.688965,1958.133545 2494.389160,1950.824707 2508.709717,1941.461914 
	C2524.251221,1931.301270 2538.585938,1919.240356 2553.094727,1907.570435 
	C2566.555664,1896.743286 2579.734375,1885.521484 2590.062256,1871.444824 
	C2592.613770,1867.967407 2594.884766,1864.267090 2597.615723,1860.941284 
	C2606.021729,1850.704834 2614.598877,1840.609375 2623.088623,1830.441650 
	C2629.906738,1822.275879 2636.478271,1813.892700 2643.539307,1805.943359 
	C2659.627930,1787.830322 2676.021729,1769.988770 2692.140869,1751.902710 
	C2698.548340,1744.713745 2703.877197,1736.441528 2710.866699,1729.915283 
	C2738.695557,1703.931641 2760.873291,1672.981812 2786.426270,1645.012817 
	C2798.539551,1631.754272 2810.130127,1618.019775 2822.046631,1604.579712 
	C2830.623535,1594.906616 2839.648682,1585.615967 2847.932129,1575.701904 
	C2859.228760,1562.182007 2869.960693,1548.191895 2881.038574,1534.487183 
	C2884.793945,1529.841431 2889.158203,1525.671509 2892.741211,1520.906128 
	C2908.528564,1499.907715 2924.196045,1478.818115 2939.777588,1457.666260 
	C2948.254883,1446.158569 2957.219727,1434.913208 2964.610107,1422.727905 
	C2972.955566,1408.967407 2984.273682,1397.707031 2993.751953,1384.933716 
	C3006.793457,1367.357666 3020.317871,1350.140015 3033.623535,1332.759888 
	C3034.024902,1332.235474 3034.307861,1331.617188 3034.623535,1331.030762 
	C3044.707275,1312.301392 3055.315186,1293.831787 3064.753662,1274.782593 
	C3081.613525,1240.755737 3095.482178,1205.496460 3105.630127,1168.846802 
	C3113.352783,1140.955566 3119.369873,1112.688110 3121.702637,1083.822998 
	C3123.307861,1063.958252 3123.645020,1043.991089 3124.816406,1023.830078 
	C3124.787842,1023.043762 3124.491455,1022.497070 3123.990479,1021.068542 
	C3123.233643,994.532471 3119.627930,969.241455 3113.708740,944.342346 
	C3100.497559,888.769836 3075.832031,838.847900 3038.903809,795.101685 
	C3009.664551,760.463928 2975.372070,731.775879 2936.567139,708.504089 
	C2912.830322,694.268860 2887.722656,682.734802 2861.385742,674.279053 
	C2827.733643,663.474670 2793.203125,657.485291 2757.754883,656.073486 
	C2724.625244,654.754028 2691.984619,658.082214 2659.805176,665.014343 
	C2619.318115,673.736206 2580.894287,688.485291 2544.278564,708.010559 
	C2498.440918,732.453552 2457.297119,763.272949 2420.818604,800.027649 
	C2397.432861,823.590454 2375.233887,848.386414 2353.343262,873.365845 
	C2307.946777,925.168640 2266.783691,980.336914 2225.965332,1035.758789 
	C2215.525146,1049.933960 2204.737549,1063.853271 2193.657227,1077.188477 
	C2188.131836,1061.750244 2183.400879,1046.885132 2177.926514,1032.299316 
	C2155.034668,971.304504 2124.651123,914.270569 2086.447021,861.477844 
	C2059.900146,824.793945 2030.510620,790.614014 1997.326172,759.660156 
	C1972.735107,736.721985 1946.991455,715.292786 1919.564941,695.878479 
	C1873.304077,663.132324 1823.684326,636.189209 1772.975464,610.576416 
	C1773.599365,608.652649 1773.962036,607.327332 1774.699219,606.260681 
	C1798.518555,571.786865 1821.525635,536.711365 1846.408081,503.021332 
	C1892.620850,440.450897 1942.610474,380.866577 1993.434937,322.006012 
	C2029.048218,280.761810 2065.067139,239.867966 2100.680908,198.624252 
	C2128.475830,166.435654 2156.171631,134.155121 2183.446777,101.526901 
	C2203.474121,77.568970 2224.196533,54.073601 2240.476318,27.241837 
	C2245.420654,19.092731 2249.515869,10.428329 2254.000000,1.999974 
	C2382.056152,2.000000 2510.112061,2.000000 2638.934082,2.884677 
	C2639.657227,9.137843 2639.614258,14.506330 2639.063477,19.939728 
	C2638.286865,20.214106 2638.017578,20.423574 2636.831543,20.542583 
	C2615.961670,20.112356 2596.076416,19.934860 2576.312744,23.937212 
	C2535.463867,32.209457 2502.231934,52.527584 2476.850342,85.558769 
	C2463.415039,103.043396 2452.811035,122.206879 2443.654297,142.239868 
	C2425.454834,182.057510 2414.399170,223.221710 2417.560303,267.567902 
	C2419.239258,291.117310 2424.791260,313.497681 2434.654785,334.803955 
	C2451.398193,370.971741 2477.174316,399.645325 2509.401611,422.596252 
	C2557.300293,456.707550 2610.515869,470.930695 2668.899658,462.278381 
	C2738.770996,451.923676 2791.070068,414.639221 2827.945801,355.066925 
	C2833.863281,345.507599 2838.502197,335.156738 2844.423584,325.509949 
	C2892.065674,347.233795 2941.226562,361.605103 2991.655029,371.911224 
	C2999.515625,373.517700 3007.430420,375.056732 3015.397217,375.893127 
	C3024.916992,376.892517 3034.513428,377.260223 3044.087402,377.625031 
	C3073.857178,378.759399 3103.508301,378.504333 3133.160400,374.245117 
	C3155.458984,371.042175 3177.252930,366.259003 3198.742432,359.728455 
	C3199.711426,359.434021 3200.908936,359.892334 3202.000000,360.000000 
M2373.757324,443.231934 
	C2370.109619,439.835358 2366.741455,436.063904 2362.770020,433.100861 
	C2326.838623,406.293182 2286.843994,390.055847 2241.975342,385.499573 
	C2213.526123,382.610565 2186.334961,386.787598 2159.977783,396.941833 
	C2132.500244,407.527710 2109.475098,424.706268 2089.296631,446.070007 
	C2060.448242,476.612366 2046.726929,513.217468 2046.695923,554.650208 
	C2046.685059,569.368896 2049.556152,584.452271 2053.423828,598.743469 
	C2065.134766,642.015808 2088.848389,678.052124 2123.532471,706.381897 
	C2161.326660,737.251831 2204.459717,749.225708 2252.948242,740.589233 
	C2303.769775,731.537231 2344.460938,704.799988 2377.297119,666.477722 
	C2407.343750,631.410828 2421.938477,590.158020 2418.424561,543.196533 
	C2415.560547,504.920166 2401.861816,471.692657 2373.757324,443.231934 
M228.839294,106.235359 
	C224.215408,101.982399 220.120804,96.876213 214.876694,93.623093 
	C191.246841,78.964622 166.002777,69.938972 137.530319,73.730797 
	C119.136093,76.180443 104.240601,84.589127 93.072067,99.471191 
	C84.799011,110.495033 78.719353,122.716721 74.587479,135.772675 
	C69.928818,150.493149 68.128166,165.521378 71.189186,180.993988 
	C78.951736,220.231522 120.564095,254.838181 166.214828,249.338181 
	C243.081833,240.077240 265.438141,153.452316 228.839294,106.235359 
M2893.975830,394.691254 
	C2893.085449,395.137146 2892.203369,395.600159 2891.303711,396.026550 
	C2872.229492,405.068390 2856.515137,417.147003 2853.288086,439.804810 
	C2852.360596,446.316040 2851.891357,453.057953 2852.460693,459.585236 
	C2854.032471,477.604431 2860.969971,493.249115 2876.878906,502.975372 
	C2893.740723,513.283936 2912.408691,517.788513 2932.239990,515.626709 
	C2960.245361,512.574036 2978.772217,491.710815 2983.983398,468.630493 
	C2986.377441,458.027496 2985.924561,446.771637 2983.841064,436.238312 
	C2979.830322,415.960754 2963.479736,396.013458 2940.239746,390.143860 
	C2924.856934,386.258667 2909.970703,388.461304 2893.975830,394.691254 
M271.915649,1003.743530 
	C294.542633,1012.174805 323.003815,993.466858 329.903748,971.895020 
	C335.095703,955.662903 329.900208,937.847534 316.172638,928.343262 
	C310.284027,924.266296 303.331940,921.162964 296.412262,919.236572 
	C268.566223,911.484375 244.564438,931.390747 240.631607,952.619385 
	C237.116638,971.592407 250.673584,994.513672 271.915649,1003.743530 
M2329.547363,153.637100 
	C2331.873047,154.904404 2334.129395,156.324280 2336.535889,157.413193 
	C2348.065674,162.630142 2360.178467,164.592773 2372.325928,160.835770 
	C2386.554199,156.435181 2394.824707,145.763672 2397.447266,131.444611 
	C2400.121582,116.843819 2395.854004,104.136162 2384.868408,93.579018 
	C2375.584961,84.657707 2364.167480,85.618347 2353.050049,85.834076 
	C2337.005859,86.145416 2321.001221,100.063080 2317.518799,115.569534 
	C2314.275635,130.008499 2318.142578,142.300186 2329.547363,153.637100 
z"/>
<path fill="#0F90D1" opacity="1.000000" stroke="none" 
	d="
M2253.062744,1.999974 
	C2249.515869,10.428329 2245.420654,19.092731 2240.476318,27.241837 
	C2224.196533,54.073601 2203.474121,77.568970 2183.446777,101.526901 
	C2156.171631,134.155121 2128.475830,166.435654 2100.680908,198.624252 
	C2065.067139,239.867966 2029.048218,280.761810 1993.434937,322.006012 
	C1942.610474,380.866577 1892.620850,440.450897 1846.408081,503.021332 
	C1821.525635,536.711365 1798.518555,571.786865 1774.699219,606.260681 
	C1773.962036,607.327332 1773.599365,608.652649 1772.454224,610.924133 
	C1769.390625,615.097351 1766.764038,618.084961 1764.505127,621.328491 
	C1735.859985,662.458557 1699.224976,694.984497 1655.833008,719.533569 
	C1590.667847,756.400696 1520.439941,773.088623 1445.439331,770.471069 
	C1407.209351,769.136841 1370.169312,762.608032 1334.115723,750.086670 
	C1292.452759,735.616943 1254.760742,714.242310 1222.075195,684.515137 
	C1188.196289,653.702698 1158.962646,618.760620 1133.692261,580.683350 
	C1120.292236,560.492249 1108.841919,539.007263 1096.511353,518.106384 
	C1090.692993,503.998566 1084.508789,490.028625 1079.129883,475.755219 
	C1066.540771,442.349884 1058.636963,407.950897 1055.463379,372.233765 
	C1048.857544,297.887695 1066.184814,229.236862 1102.125244,164.600281 
	C1120.319946,131.878281 1143.729248,102.942238 1167.294922,74.082214 
	C1186.405762,50.677753 1205.149536,26.973450 1224.028076,2.701072 
	C1566.708496,2.000000 1909.416992,2.000000 2253.062744,1.999974 
z"/>
<path fill="#EFF3F0" opacity="1.000000" stroke="none" 
	d="
M3202.000000,359.062683 
	C3200.908936,359.892334 3199.711426,359.434021 3198.742432,359.728455 
	C3177.252930,366.259003 3155.458984,371.042175 3133.160400,374.245117 
	C3103.508301,378.504333 3073.857178,378.759399 3044.087402,377.625031 
	C3034.513428,377.260223 3024.916992,376.892517 3015.397217,375.893127 
	C3007.430420,375.056732 2999.515625,373.517700 2991.655029,371.911224 
	C2941.226562,361.605103 2892.065674,347.233795 2844.558594,324.802795 
	C2844.406006,322.161407 2844.673828,320.515900 2845.233398,318.976471 
	C2860.445801,277.115356 2864.641846,234.218842 2856.083252,190.467072 
	C2845.261475,135.143753 2817.824951,91.087158 2767.400879,63.174084 
	C2727.726074,41.211372 2685.921875,25.770172 2640.358154,20.942602 
	C2640.248291,20.496334 2639.571045,19.874817 2639.571289,19.874817 
	C2639.614258,14.506330 2639.657227,9.137843 2639.850098,2.884677 
	C2827.155029,2.000000 3014.310059,2.000000 3202.000000,2.000000 
	C3202.000000,120.707916 3202.000000,239.416641 3202.000000,359.062683 
z"/>
<path fill="#0F90D0" opacity="1.000000" stroke="none" 
	d="
M3177.933105,800.549866 
	C3171.250000,800.488953 3164.566895,800.428101 3156.464111,800.263733 
	C3154.678955,800.173157 3154.313721,800.186096 3153.948242,800.199097 
	C3127.720215,796.806824 3104.333984,786.338318 3085.624756,768.033447 
	C3052.130127,735.263245 3032.148682,696.158386 3036.172607,647.728638 
	C3038.374023,621.237427 3049.594727,598.791748 3067.825928,579.496826 
	C3088.570068,557.542236 3113.218506,542.620300 3143.025635,537.240417 
	C3162.085938,533.800354 3181.294434,534.700073 3201.160645,538.241943 
	C3202.000000,623.375122 3202.000000,708.750244 3202.000000,795.062744 
	C3195.200684,797.261902 3188.401611,798.523743 3180.280762,799.976440 
	C3178.617432,800.294800 3178.275146,800.422363 3177.933105,800.549866 
z"/>
<path fill="#EFF3F0" opacity="1.000000" stroke="none" 
	d="
M1095.727295,518.246826 
	C1108.841919,539.007263 1120.292236,560.492249 1133.692261,580.683350 
	C1158.962646,618.760620 1188.196289,653.702698 1222.075195,684.515137 
	C1254.760742,714.242310 1292.452759,735.616943 1334.115723,750.086670 
	C1370.169312,762.608032 1407.209351,769.136841 1445.439331,770.471069 
	C1520.439941,773.088623 1590.667847,756.400696 1655.833008,719.533569 
	C1699.224976,694.984497 1735.859985,662.458557 1764.505127,621.328491 
	C1766.764038,618.084961 1769.390625,615.097351 1772.367554,611.643188 
	C1823.684326,636.189209 1873.304077,663.132324 1919.564941,695.878479 
	C1946.991455,715.292786 1972.735107,736.721985 1997.326172,759.660156 
	C2030.510620,790.614014 2059.900146,824.793945 2086.447021,861.477844 
	C2124.651123,914.270569 2155.034668,971.304504 2177.926514,1032.299316 
	C2183.400879,1046.885132 2188.131836,1061.750244 2193.423340,1077.725342 
	C2192.032959,1081.818237 2190.699707,1084.875244 2188.772949,1087.495728 
	C2168.241455,1115.418213 2147.788574,1143.401123 2126.980713,1171.117188 
	C2081.527100,1231.661865 2034.498413,1290.914185 1980.650635,1344.354370 
	C1923.150757,1401.418701 1890.240723,1470.168945 1881.579346,1550.619507 
	C1877.338989,1590.005493 1879.109009,1629.134399 1887.067993,1667.940063 
	C1902.995239,1745.597412 1938.708740,1813.057007 1992.144897,1871.361084 
	C1993.901123,1873.277344 1995.192627,1875.619507 1996.700684,1877.763062 
	C1955.947021,1919.814575 1913.402466,1959.913452 1867.321777,1996.137695 
	C1804.132324,2045.810913 1736.701782,2088.779785 1664.026123,2123.215820 
	C1589.599365,2158.481934 1511.985352,2184.089355 1430.644409,2197.792480 
	C1415.234497,2200.388672 1399.690674,2202.350098 1384.138794,2203.903809 
	C1365.437622,2205.772217 1346.679443,2207.223389 1327.912598,2208.237305 
	C1311.009277,2209.150391 1294.047852,2209.853271 1277.135864,2209.503174 
	C1259.600220,2209.139648 1242.107178,2206.912598 1224.569214,2206.400879 
	C1207.828369,2205.912598 1191.608154,2202.557373 1175.185425,2199.938965 
	C1141.872681,2194.627686 1109.283569,2186.583984 1076.790527,2175.718262 
	C1079.938721,2171.714355 1083.607788,2168.805664 1086.852783,2165.482666 
	C1122.075928,2129.413330 1134.399048,2086.132568 1125.391113,2037.069214 
	C1119.609619,2005.579102 1103.630127,1979.926025 1075.425781,1963.327393 
	C1042.893921,1944.182129 1008.069580,1933.081909 969.815002,1935.806641 
	C942.755920,1937.733887 919.286316,1948.078003 901.623962,1968.867554 
	C877.243774,1997.564819 863.846252,2031.214844 859.910034,2068.641602 
	C837.190002,2050.824707 813.569214,2034.025757 791.986450,2014.924072 
	C767.113037,1992.909668 743.269226,1969.594849 720.364197,1945.525879 
	C685.524902,1908.916626 653.834412,1869.597412 624.728394,1828.219238 
	C578.052795,1761.863159 539.494995,1691.126099 509.688263,1615.670288 
	C489.770508,1565.248779 474.631287,1513.417480 463.439301,1460.339233 
	C459.659454,1442.413452 457.806946,1424.230225 454.009308,1406.353882 
	C450.809174,1391.290039 450.243103,1375.947144 449.743286,1360.645996 
	C448.831604,1332.735596 448.025726,1304.813965 447.803253,1276.891968 
	C447.695068,1263.308350 449.698547,1249.703125 449.497284,1236.126099 
	C449.232513,1218.266113 451.702118,1200.497192 454.650208,1183.278809 
	C460.268158,1150.467407 468.361572,1117.950684 477.471161,1085.892578 
	C497.228180,1016.364441 528.157166,951.809692 568.863159,890.793823 
	C577.149902,890.667236 584.421753,891.599915 591.692139,891.588928 
	C600.633484,891.575317 609.620483,891.201477 618.504700,890.226746 
	C638.269897,888.057983 658.258667,886.749084 677.668701,882.732849 
	C749.473694,867.875366 812.889648,835.862305 868.163391,787.523804 
	C915.643921,746.000854 953.645325,697.507263 979.408569,639.706421 
	C993.122192,608.939270 1003.759888,577.204590 1009.940979,544.040344 
	C1038.275024,535.489380 1066.609131,526.938354 1095.727295,518.246826 
M1151.775269,1644.775635 
	C1154.780640,1642.147827 1157.771851,1639.503784 1160.793213,1636.894653 
	C1191.964844,1609.975952 1219.636353,1579.995605 1240.974731,1544.562378 
	C1280.406494,1479.084595 1296.351807,1408.329590 1287.595337,1332.326294 
	C1283.018433,1292.600220 1271.043335,1255.058350 1251.717773,1219.957397 
	C1230.354492,1181.155640 1201.842163,1148.625000 1165.837402,1122.800049 
	C1133.435791,1099.559570 1097.803711,1082.381348 1060.813477,1067.903809 
	C1014.246887,1049.678223 965.853699,1039.882568 915.927551,1038.657593 
	C899.406128,1038.252197 882.747253,1040.016357 866.271240,1041.861084 
	C822.053589,1046.812134 780.746399,1061.067627 741.960815,1082.666504 
	C706.778870,1102.258667 675.892944,1127.362183 648.120789,1156.444092 
	C627.531982,1178.004150 609.847717,1201.671265 596.253174,1228.199707 
	C567.199402,1284.895020 557.459595,1344.819336 565.449219,1408.083252 
	C571.631592,1457.036255 587.559692,1502.521484 611.277588,1545.374878 
	C634.839294,1587.946289 665.115662,1625.338867 701.351685,1657.875122 
	C726.800842,1680.725708 754.810425,1699.752563 786.149719,1713.490601 
	C836.208008,1735.434570 888.486206,1743.666138 942.952087,1737.787842 
	C985.422363,1733.204346 1025.556885,1720.833740 1063.843018,1702.189819 
	C1095.118408,1686.959717 1123.879395,1667.813843 1151.775269,1644.775635 
M1968.367798,966.884705 
	C1960.720947,949.932861 1949.803223,935.633789 1935.348633,923.743713 
	C1924.898193,915.147156 1913.121216,909.120789 1901.078369,903.511230 
	C1871.413818,889.693298 1840.446289,883.968323 1807.919067,890.246704 
	C1778.449707,895.934814 1754.503784,911.198059 1733.864014,932.671204 
	C1704.563721,963.154785 1694.686523,999.007141 1703.212646,1039.970337 
	C1709.937134,1072.277222 1726.892944,1098.850952 1750.692017,1121.416992 
	C1784.495361,1153.469116 1823.906372,1163.208984 1868.461792,1150.541260 
	C1902.258057,1140.932617 1928.854126,1120.035522 1950.821045,1093.306763 
	C1957.688843,1084.950073 1963.238281,1075.122925 1967.631226,1065.190430 
	C1981.759888,1033.245117 1982.072998,1000.778015 1968.367798,966.884705 
M1169.327515,739.829834 
	C1169.445312,731.858337 1170.353271,723.804016 1169.527954,715.931396 
	C1167.327026,694.942017 1159.298950,676.396851 1141.814697,663.745605 
	C1121.109985,648.764343 1097.555176,640.628723 1071.894531,640.678162 
	C1052.587524,640.715393 1034.902100,646.902344 1021.937378,661.861633 
	C1005.386597,680.958740 995.378662,703.322632 993.917847,728.779663 
	C992.161682,759.384216 1006.019897,782.598694 1029.972412,800.364441 
	C1049.297363,814.697937 1070.961182,820.186218 1094.909302,816.723511 
	C1129.470337,811.726379 1162.698608,782.608948 1169.327515,739.829834 
M1778.385010,1164.055786 
	C1773.279297,1162.780151 1768.177856,1160.434692 1763.067261,1160.415039 
	C1741.616333,1160.332153 1727.640259,1172.487427 1718.871704,1190.637451 
	C1712.723877,1203.363159 1714.362305,1216.524048 1721.937988,1228.659790 
	C1727.360840,1237.346680 1735.129883,1243.653809 1743.898071,1248.476074 
	C1751.224609,1252.505249 1759.453125,1254.762939 1767.895508,1253.520264 
	C1795.790649,1249.414062 1807.908936,1223.459473 1805.157837,1200.881226 
	C1803.141113,1184.329590 1793.280884,1173.228882 1778.385010,1164.055786 
M1224.641846,1729.116577 
	C1231.103638,1710.767700 1227.859741,1695.393799 1214.332764,1683.948608 
	C1201.373657,1672.983765 1186.099243,1669.129639 1169.546387,1672.625244 
	C1148.743286,1677.018311 1133.375610,1698.111328 1136.610718,1718.522827 
	C1139.439453,1736.370117 1149.613403,1749.598145 1166.297485,1757.085938 
	C1170.100098,1758.792603 1174.642578,1759.558350 1178.842773,1759.552002 
	C1199.980225,1759.520386 1214.163208,1748.239990 1224.641846,1729.116577 
M1153.711670,2048.666260 
	C1160.946167,2070.753418 1176.836426,2082.533447 1198.323486,2080.052979 
	C1215.150391,2078.111084 1226.457031,2067.122559 1234.087158,2052.809570 
	C1244.227173,2033.788574 1238.931396,2010.708252 1222.447876,1998.245361 
	C1206.866577,1986.464966 1179.827026,1988.123535 1165.082031,2001.419312 
	C1150.994751,2014.122070 1149.496338,2029.822876 1153.711670,2048.666260 
M1189.947754,790.171387 
	C1196.822632,807.401306 1218.697876,820.147705 1238.289185,814.018799 
	C1254.765137,808.864380 1266.881592,794.073059 1268.124268,776.600281 
	C1269.305908,759.981689 1261.597656,746.533508 1246.394775,739.720886 
	C1241.285034,737.431091 1235.777832,735.600220 1230.266724,734.716675 
	C1215.801758,732.397583 1203.967407,737.222961 1195.874390,749.677063 
	C1188.096069,761.646667 1185.228760,774.612793 1189.947754,790.171387 
M1259.002808,1624.222778 
	C1259.569580,1615.051514 1255.943115,1608.142822 1247.625610,1604.107544 
	C1239.793213,1600.307617 1231.229492,1600.120728 1223.838867,1603.943970 
	C1211.615601,1610.266846 1209.094849,1622.847656 1216.480835,1634.425537 
	C1223.671875,1645.697754 1236.531616,1648.775635 1247.388916,1641.367554 
	C1252.894043,1637.611206 1257.684814,1632.919556 1259.002808,1624.222778 
z"/>
<path fill="#0F90D1" opacity="1.000000" stroke="none" 
	d="
M1997.198975,1878.163086 
	C1995.192627,1875.619507 1993.901123,1873.277344 1992.144897,1871.361084 
	C1938.708740,1813.057007 1902.995239,1745.597412 1887.067993,1667.940063 
	C1879.109009,1629.134399 1877.338989,1590.005493 1881.579346,1550.619507 
	C1890.240723,1470.168945 1923.150757,1401.418701 1980.650635,1344.354370 
	C2034.498413,1290.914185 2081.527100,1231.661865 2126.980713,1171.117188 
	C2147.788574,1143.401123 2168.241455,1115.418213 2188.772949,1087.495728 
	C2190.699707,1084.875244 2192.032959,1081.818237 2193.875732,1078.427002 
	C2204.737549,1063.853271 2215.525146,1049.933960 2225.965332,1035.758789 
	C2266.783691,980.336914 2307.946777,925.168640 2353.343262,873.365845 
	C2375.233887,848.386414 2397.432861,823.590454 2420.818604,800.027649 
	C2457.297119,763.272949 2498.440918,732.453552 2544.278564,708.010559 
	C2580.894287,688.485291 2619.318115,673.736206 2659.805176,665.014343 
	C2691.984619,658.082214 2724.625244,654.754028 2757.754883,656.073486 
	C2793.203125,657.485291 2827.733643,663.474670 2861.385742,674.279053 
	C2887.722656,682.734802 2912.830322,694.268860 2936.567139,708.504089 
	C2975.372070,731.775879 3009.664551,760.463928 3038.903809,795.101685 
	C3075.832031,838.847900 3100.497559,888.769836 3113.708740,944.342346 
	C3119.627930,969.241455 3123.233643,994.532471 3123.972168,1021.616211 
	C3124.289062,1023.387085 3124.419189,1023.728394 3124.549072,1024.069702 
	C3123.645020,1043.991089 3123.307861,1063.958252 3121.702637,1083.822998 
	C3119.369873,1112.688110 3113.352783,1140.955566 3105.630127,1168.846802 
	C3095.482178,1205.496460 3081.613525,1240.755737 3064.753662,1274.782593 
	C3055.315186,1293.831787 3044.707275,1312.301392 3034.623535,1331.030762 
	C3034.307861,1331.617188 3034.024902,1332.235474 3033.623535,1332.759888 
	C3020.317871,1350.140015 3006.793457,1367.357666 2993.751953,1384.933716 
	C2984.273682,1397.707031 2972.955566,1408.967407 2964.610107,1422.727905 
	C2957.219727,1434.913208 2948.254883,1446.158569 2939.777588,1457.666260 
	C2924.196045,1478.818115 2908.528564,1499.907715 2892.741211,1520.906128 
	C2889.158203,1525.671509 2884.793945,1529.841431 2881.038574,1534.487183 
	C2869.960693,1548.191895 2859.228760,1562.182007 2847.932129,1575.701904 
	C2839.648682,1585.615967 2830.623535,1594.906616 2822.046631,1604.579712 
	C2810.130127,1618.019775 2798.539551,1631.754272 2786.426270,1645.012817 
	C2760.873291,1672.981812 2738.695557,1703.931641 2710.866699,1729.915283 
	C2703.877197,1736.441528 2698.548340,1744.713745 2692.140869,1751.902710 
	C2676.021729,1769.988770 2659.627930,1787.830322 2643.539307,1805.943359 
	C2636.478271,1813.892700 2629.906738,1822.275879 2623.088623,1830.441650 
	C2614.598877,1840.609375 2606.021729,1850.704834 2597.615723,1860.941284 
	C2594.884766,1864.267090 2592.613770,1867.967407 2590.062256,1871.444824 
	C2579.734375,1885.521484 2566.555664,1896.743286 2553.094727,1907.570435 
	C2538.585938,1919.240356 2524.251221,1931.301270 2508.709717,1941.461914 
	C2494.389160,1950.824707 2478.688965,1958.133545 2463.345703,1965.848511 
	C2457.476074,1968.799805 2450.865479,1970.248291 2444.682861,1972.617065 
	C2441.608154,1973.795166 2438.755615,1975.542969 2435.769531,1976.963745 
	C2432.512695,1978.513428 2429.336670,1980.374390 2425.916992,1981.413818 
	C2416.150391,1984.382812 2406.303467,1987.096191 2396.443359,1989.744141 
	C2370.823242,1996.624146 2345.241699,2002.750854 2318.463623,2004.653564 
	C2259.353027,2008.853882 2202.416504,2000.203979 2147.488281,1978.828247 
	C2099.615723,1960.198242 2056.549561,1933.405396 2018.843140,1898.294922 
	C2011.787720,1891.725098 2004.745728,1885.140747 1997.198975,1878.163086 
z"/>
<path fill="#3A62D3" opacity="1.000000" stroke="none" 
	d="
M1009.877136,543.186035 
	C1003.759888,577.204590 993.122192,608.939270 979.408569,639.706421 
	C953.645325,697.507263 915.643921,746.000854 868.163391,787.523804 
	C812.889648,835.862305 749.473694,867.875366 677.668701,882.732849 
	C658.258667,886.749084 638.269897,888.057983 618.504700,890.226746 
	C609.620483,891.201477 600.633484,891.575317 591.692139,891.588928 
	C584.421753,891.599915 577.149902,890.667236 569.026001,890.115845 
	C558.656372,888.803345 549.135559,887.556030 539.623108,886.248169 
	C489.672791,879.380371 442.685516,863.664856 398.384277,839.573059 
	C341.705963,808.750366 293.838074,767.491638 253.856277,717.156555 
	C212.429657,665.002563 186.690033,605.920349 177.529602,539.676025 
	C173.821136,512.857971 172.498062,485.984070 174.512863,459.107513 
	C179.004013,399.197784 194.723801,342.038757 219.254837,287.303436 
	C237.665909,246.223358 258.540222,206.450836 285.872742,170.484604 
	C335.041901,105.784004 399.479553,65.282295 479.418976,49.882256 
	C498.019287,46.298969 516.795105,44.419495 535.776855,43.539886 
	C602.499634,40.447968 666.590942,53.113609 729.294250,74.588928 
	C777.669373,91.156960 823.590515,113.059357 866.588989,140.656967 
	C906.455200,166.244202 937.775940,200.435394 962.379578,240.830170 
	C990.677124,287.289948 1006.912354,337.873474 1014.319824,391.570526 
	C1018.427185,421.345917 1019.427856,451.230255 1017.489075,481.128845 
	C1016.353699,498.637604 1013.262695,516.019836 1011.039551,533.457397 
	C1010.661926,536.419434 1010.223633,539.373840 1009.877136,543.186035 
z"/>
<path fill="#3A62D3" opacity="1.000000" stroke="none" 
	d="
M2640.468018,21.388870 
	C2685.921875,25.770172 2727.726074,41.211372 2767.400879,63.174084 
	C2817.824951,91.087158 2845.261475,135.143753 2856.083252,190.467072 
	C2864.641846,234.218842 2860.445801,277.115356 2845.233398,318.976471 
	C2844.673828,320.515900 2844.406006,322.161407 2843.867188,324.464661 
	C2838.502197,335.156738 2833.863281,345.507599 2827.945801,355.066925 
	C2791.070068,414.639221 2738.770996,451.923676 2668.899658,462.278381 
	C2610.515869,470.930695 2557.300293,456.707550 2509.401611,422.596252 
	C2477.174316,399.645325 2451.398193,370.971741 2434.654785,334.803955 
	C2424.791260,313.497681 2419.239258,291.117310 2417.560303,267.567902 
	C2414.399170,223.221710 2425.454834,182.057510 2443.654297,142.239868 
	C2452.811035,122.206879 2463.415039,103.043396 2476.850342,85.558769 
	C2502.231934,52.527584 2535.463867,32.209457 2576.312744,23.937212 
	C2596.076416,19.934860 2615.961670,20.112356 2637.179688,20.913094 
	C2639.119141,21.379000 2639.793457,21.383934 2640.468018,21.388870 
z"/>
<path fill="#55C5FE" opacity="1.000000" stroke="none" 
	d="
M2374.261719,443.736206 
	C2401.861816,471.692657 2415.560547,504.920166 2418.424561,543.196533 
	C2421.938477,590.158020 2407.343750,631.410828 2377.297119,666.477722 
	C2344.460938,704.799988 2303.769775,731.537231 2252.948242,740.589233 
	C2204.459717,749.225708 2161.326660,737.251831 2123.532471,706.381897 
	C2088.848389,678.052124 2065.134766,642.015808 2053.423828,598.743469 
	C2049.556152,584.452271 2046.685059,569.368896 2046.695923,554.650208 
	C2046.726929,513.217468 2060.448242,476.612366 2089.296631,446.070007 
	C2109.475098,424.706268 2132.500244,407.527710 2159.977783,396.941833 
	C2186.334961,386.787598 2213.526123,382.610565 2241.975342,385.499573 
	C2286.843994,390.055847 2326.838623,406.293182 2362.770020,433.100861 
	C2366.741455,436.063904 2370.109619,439.835358 2374.261719,443.736206 
z"/>
<path fill="#2549FF" opacity="1.000000" stroke="none" 
	d="
M859.997925,2069.520020 
	C863.846252,2031.214844 877.243774,1997.564819 901.623962,1968.867554 
	C919.286316,1948.078003 942.755920,1937.733887 969.815002,1935.806641 
	C1008.069580,1933.081909 1042.893921,1944.182129 1075.425781,1963.327393 
	C1103.630127,1979.926025 1119.609619,2005.579102 1125.391113,2037.069214 
	C1134.399048,2086.132568 1122.075928,2129.413330 1086.852783,2165.482666 
	C1083.607788,2168.805664 1079.938721,2171.714355 1076.108643,2175.391602 
	C1057.002197,2188.925293 1037.120483,2198.947510 1014.177368,2202.482422 
	C978.141968,2208.034424 945.662354,2199.473877 916.271423,2178.710693 
	C893.816650,2162.847412 876.703552,2142.467529 867.022278,2116.351807 
	C861.518738,2101.505859 859.885193,2086.095459 859.997925,2069.520020 
z"/>
<path fill="#3A61D2" opacity="1.000000" stroke="none" 
	d="
M229.317474,106.768295 
	C265.438141,153.452316 243.081833,240.077240 166.214828,249.338181 
	C120.564095,254.838181 78.951736,220.231522 71.189186,180.993988 
	C68.128166,165.521378 69.928818,150.493149 74.587479,135.772675 
	C78.719353,122.716721 84.799011,110.495033 93.072067,99.471191 
	C104.240601,84.589127 119.136093,76.180443 137.530319,73.730797 
	C166.002777,69.938972 191.246841,78.964622 214.876694,93.623093 
	C220.120804,96.876213 224.215408,101.982399 229.317474,106.768295 
z"/>
<path fill="#EDF1EE" opacity="1.000000" stroke="none" 
	d="
M2894.687988,394.380249 
	C2909.970703,388.461304 2924.856934,386.258667 2940.239746,390.143860 
	C2963.479736,396.013458 2979.830322,415.960754 2983.841064,436.238312 
	C2985.924561,446.771637 2986.377441,458.027496 2983.983398,468.630493 
	C2978.772217,491.710815 2960.245361,512.574036 2932.239990,515.626709 
	C2912.408691,517.788513 2893.740723,513.283936 2876.878906,502.975372 
	C2860.969971,493.249115 2854.032471,477.604431 2852.460693,459.585236 
	C2851.891357,453.057953 2852.360596,446.316040 2853.288086,439.804810 
	C2856.515137,417.147003 2872.229492,405.068390 2891.303711,396.026550 
	C2892.203369,395.600159 2893.085449,395.137146 2894.687988,394.380249 
z"/>
<path fill="#54C4FD" opacity="1.000000" stroke="none" 
	d="
M271.198639,1003.418152 
	C250.673584,994.513672 237.116638,971.592407 240.631607,952.619385 
	C244.564438,931.390747 268.566223,911.484375 296.412262,919.236572 
	C303.331940,921.162964 310.284027,924.266296 316.172638,928.343262 
	C329.900208,937.847534 335.095703,955.662903 329.903748,971.895020 
	C323.003815,993.466858 294.542633,1012.174805 271.198639,1003.418152 
z"/>
<path fill="#ECF0ED" opacity="1.000000" stroke="none" 
	d="
M2328.947021,153.212250 
	C2318.142578,142.300186 2314.275635,130.008499 2317.518799,115.569534 
	C2321.001221,100.063080 2337.005859,86.145416 2353.050049,85.834076 
	C2364.167480,85.618347 2375.584961,84.657707 2384.868408,93.579018 
	C2395.854004,104.136162 2400.121582,116.843819 2397.447266,131.444611 
	C2394.824707,145.763672 2386.554199,156.435181 2372.325928,160.835770 
	C2360.178467,164.592773 2348.065674,162.630142 2336.535889,157.413193 
	C2334.129395,156.324280 2331.873047,154.904404 2328.947021,153.212250 
z"/>
<path fill="#072533" opacity="1.000000" stroke="none" 
	d="
M3124.816406,1023.830078 
	C3124.419189,1023.728394 3124.289062,1023.387085 3124.177002,1022.498108 
	C3124.491455,1022.497070 3124.787842,1023.043762 3124.816406,1023.830078 
z"/>
<path fill="#072533" opacity="1.000000" stroke="none" 
	d="
M3178.170898,800.819580 
	C3178.275146,800.422363 3178.617432,800.294800 3179.506836,800.186035 
	C3179.505615,800.499634 3178.957275,800.794434 3178.170898,800.819580 
z"/>
<path fill="#072533" opacity="1.000000" stroke="none" 
	d="
M3154.120117,800.516479 
	C3154.313721,800.186096 3154.678955,800.173157 3155.557617,800.353149 
	C3155.478027,800.641968 3154.885010,800.737854 3154.120117,800.516479 
z"/>
<path fill="#3B3C3B" opacity="1.000000" stroke="none" 
	d="
M2640.358154,20.942602 
	C2639.793457,21.383934 2639.119141,21.379000 2638.096191,21.003551 
	C2638.017578,20.423574 2638.286865,20.214106 2639.063477,19.939728 
	C2639.571045,19.874817 2640.248291,20.496334 2640.358154,20.942602 
z"/>
<path fill="#2449FF" opacity="1.000000" stroke="none" 
	d="
M1151.247681,1645.255615 
	C1123.879395,1667.813843 1095.118408,1686.959717 1063.843018,1702.189819 
	C1025.556885,1720.833740 985.422363,1733.204346 942.952087,1737.787842 
	C888.486206,1743.666138 836.208008,1735.434570 786.149719,1713.490601 
	C754.810425,1699.752563 726.800842,1680.725708 701.351685,1657.875122 
	C665.115662,1625.338867 634.839294,1587.946289 611.277588,1545.374878 
	C587.559692,1502.521484 571.631592,1457.036255 565.449219,1408.083252 
	C557.459595,1344.819336 567.199402,1284.895020 596.253174,1228.199707 
	C609.847717,1201.671265 627.531982,1178.004150 648.120789,1156.444092 
	C675.892944,1127.362183 706.778870,1102.258667 741.960815,1082.666504 
	C780.746399,1061.067627 822.053589,1046.812134 866.271240,1041.861084 
	C882.747253,1040.016357 899.406128,1038.252197 915.927551,1038.657593 
	C965.853699,1039.882568 1014.246887,1049.678223 1060.813477,1067.903809 
	C1097.803711,1082.381348 1133.435791,1099.559570 1165.837402,1122.800049 
	C1201.842163,1148.625000 1230.354492,1181.155640 1251.717773,1219.957397 
	C1271.043335,1255.058350 1283.018433,1292.600220 1287.595337,1332.326294 
	C1296.351807,1408.329590 1280.406494,1479.084595 1240.974731,1544.562378 
	C1219.636353,1579.995605 1191.964844,1609.975952 1160.793213,1636.894653 
	C1157.771851,1639.503784 1154.780640,1642.147827 1151.247681,1645.255615 
z"/>
<path fill="#56C6FF" opacity="1.000000" stroke="none" 
	d="
M1968.684570,967.584351 
	C1982.072998,1000.778015 1981.759888,1033.245117 1967.631226,1065.190430 
	C1963.238281,1075.122925 1957.688843,1084.950073 1950.821045,1093.306763 
	C1928.854126,1120.035522 1902.258057,1140.932617 1868.461792,1150.541260 
	C1823.906372,1163.208984 1784.495361,1153.469116 1750.692017,1121.416992 
	C1726.892944,1098.850952 1709.937134,1072.277222 1703.212646,1039.970337 
	C1694.686523,999.007141 1704.563721,963.154785 1733.864014,932.671204 
	C1754.503784,911.198059 1778.449707,895.934814 1807.919067,890.246704 
	C1840.446289,883.968323 1871.413818,889.693298 1901.078369,903.511230 
	C1913.121216,909.120789 1924.898193,915.147156 1935.348633,923.743713 
	C1949.803223,935.633789 1960.720947,949.932861 1968.684570,967.584351 
z"/>
<path fill="#1191D1" opacity="1.000000" stroke="none" 
	d="
M1169.097290,740.683716 
	C1162.698608,782.608948 1129.470337,811.726379 1094.909302,816.723511 
	C1070.961182,820.186218 1049.297363,814.697937 1029.972412,800.364441 
	C1006.019897,782.598694 992.161682,759.384216 993.917847,728.779663 
	C995.378662,703.322632 1005.386597,680.958740 1021.937378,661.861633 
	C1034.902100,646.902344 1052.587524,640.715393 1071.894531,640.678162 
	C1097.555176,640.628723 1121.109985,648.764343 1141.814697,663.745605 
	C1159.298950,676.396851 1167.327026,694.942017 1169.527954,715.931396 
	C1170.353271,723.804016 1169.445312,731.858337 1169.097290,740.683716 
z"/>
<path fill="#57C7FF" opacity="1.000000" stroke="none" 
	d="
M1779.062988,1164.402344 
	C1793.280884,1173.228882 1803.141113,1184.329590 1805.157837,1200.881226 
	C1807.908936,1223.459473 1795.790649,1249.414062 1767.895508,1253.520264 
	C1759.453125,1254.762939 1751.224609,1252.505249 1743.898071,1248.476074 
	C1735.129883,1243.653809 1727.360840,1237.346680 1721.937988,1228.659790 
	C1714.362305,1216.524048 1712.723877,1203.363159 1718.871704,1190.637451 
	C1727.640259,1172.487427 1741.616333,1160.332153 1763.067261,1160.415039 
	C1768.177856,1160.434692 1773.279297,1162.780151 1779.062988,1164.402344 
z"/>
<path fill="#362FFF" opacity="1.000000" stroke="none" 
	d="
M1224.413574,1729.862305 
	C1214.163208,1748.239990 1199.980225,1759.520386 1178.842773,1759.552002 
	C1174.642578,1759.558350 1170.100098,1758.792603 1166.297485,1757.085938 
	C1149.613403,1749.598145 1139.439453,1736.370117 1136.610718,1718.522827 
	C1133.375610,1698.111328 1148.743286,1677.018311 1169.546387,1672.625244 
	C1186.099243,1669.129639 1201.373657,1672.983765 1214.332764,1683.948608 
	C1227.859741,1695.393799 1231.103638,1710.767700 1224.413574,1729.862305 
z"/>
<path fill="#274BFF" opacity="1.000000" stroke="none" 
	d="
M1153.539062,2047.842041 
	C1149.496338,2029.822876 1150.994751,2014.122070 1165.082031,2001.419312 
	C1179.827026,1988.123535 1206.866577,1986.464966 1222.447876,1998.245361 
	C1238.931396,2010.708252 1244.227173,2033.788574 1234.087158,2052.809570 
	C1226.457031,2067.122559 1215.150391,2078.111084 1198.323486,2080.052979 
	C1176.836426,2082.533447 1160.946167,2070.753418 1153.539062,2047.842041 
z"/>
<path fill="#1291D1" opacity="1.000000" stroke="none" 
	d="
M1189.639160,789.416443 
	C1185.228760,774.612793 1188.096069,761.646667 1195.874390,749.677063 
	C1203.967407,737.222961 1215.801758,732.397583 1230.266724,734.716675 
	C1235.777832,735.600220 1241.285034,737.431091 1246.394775,739.720886 
	C1261.597656,746.533508 1269.305908,759.981689 1268.124268,776.600281 
	C1266.881592,794.073059 1254.765137,808.864380 1238.289185,814.018799 
	C1218.697876,820.147705 1196.822632,807.401306 1189.639160,789.416443 
z"/>
<path fill="#3931FE" opacity="1.000000" stroke="none" 
	d="
M1258.777588,1624.942627 
	C1257.684814,1632.919556 1252.894043,1637.611206 1247.388916,1641.367554 
	C1236.531616,1648.775635 1223.671875,1645.697754 1216.480835,1634.425537 
	C1209.094849,1622.847656 1211.615601,1610.266846 1223.838867,1603.943970 
	C1231.229492,1600.120728 1239.793213,1600.307617 1247.625610,1604.107544 
	C1255.943115,1608.142822 1259.569580,1615.051514 1258.777588,1624.942627 
z"/>
</svg>